<svg width="200" height="22" viewBox="0 0 200 22" fill="none" xmlns="http://www.w3.org/2000/svg">
<path d="M13.604 7.79483C13.4448 7.27895 13.2251 6.8172 12.9448 6.40959C12.671 5.99561 12.3398 5.64214 11.9513 5.34917C11.5691 5.0562 11.1297 4.83647 10.6329 4.68998C10.1361 4.53713 9.59478 4.4607 9.00884 4.4607C7.95796 4.4607 7.02173 4.72501 6.20014 5.25363C5.37855 5.78225 4.73211 6.55926 4.26081 7.58466C3.79588 8.60368 3.56341 9.84562 3.56341 11.3105C3.56341 12.7881 3.79588 14.0396 4.26081 15.065C4.72574 16.0904 5.37218 16.8705 6.20014 17.4055C7.0281 17.9342 7.98981 18.1985 9.08526 18.1985C10.0788 18.1985 10.9386 18.0074 11.6647 17.6253C12.3971 17.2431 12.9608 16.7018 13.3556 16.0012C13.7505 15.2942 13.9479 14.4663 13.9479 13.5173L14.7504 13.6415H9.43874V10.871H17.3776V13.2212C17.3776 14.8962 17.0209 16.3451 16.3076 17.5679C15.5943 18.7908 14.6135 19.7334 13.3652 20.3957C12.1169 21.0517 10.6839 21.3797 9.06616 21.3797C7.26375 21.3797 5.68108 20.9753 4.31813 20.1665C2.96155 19.3512 1.90112 18.1953 1.13685 16.6986C0.378951 15.1955 0 13.4122 0 11.3487C0 9.7692 0.222912 8.35848 0.668737 7.11654C1.12093 5.8746 1.75145 4.82055 2.56031 3.95437C3.36916 3.08183 4.31813 2.41946 5.40721 1.96727C6.4963 1.50871 7.68092 1.27943 8.96107 1.27943C10.0438 1.27943 11.0533 1.43865 11.9895 1.75709C12.9257 2.06917 13.7569 2.515 14.4829 3.09457C15.2153 3.67414 15.8172 4.36198 16.2885 5.1581C16.7598 5.95421 17.0687 6.83312 17.2152 7.79483H13.604Z" fill="#F8F9FA"/>
<path d="M27.1483 21.3988C25.6771 21.3988 24.4065 21.0931 23.3365 20.4817C22.2729 19.8639 21.4545 18.9914 20.8813 17.8641C20.3081 16.7304 20.0215 15.3961 20.0215 13.8612C20.0215 12.3518 20.3081 11.0271 20.8813 9.88702C21.4609 8.74061 22.2697 7.84897 23.3079 7.21207C24.346 6.56881 25.5656 6.24718 26.9668 6.24718C27.8712 6.24718 28.7246 6.39367 29.5271 6.68664C30.336 6.97324 31.0493 7.41906 31.6671 8.02411C32.2912 8.62916 32.7816 9.3998 33.1383 10.336C33.4949 11.2659 33.6733 12.3741 33.6733 13.6606V14.721H21.6456V12.39H30.3583C30.3519 11.7276 30.2086 11.1385 29.9283 10.6226C29.6481 10.1004 29.2564 9.68958 28.7533 9.39025C28.2565 9.09091 27.6769 8.94124 27.0146 8.94124C26.3076 8.94124 25.6866 9.1132 25.1517 9.45712C24.6167 9.79467 24.1995 10.2405 23.9002 10.7946C23.6072 11.3423 23.4575 11.9442 23.4512 12.6002V14.6351C23.4512 15.4885 23.6072 16.2209 23.9193 16.8323C24.2313 17.4374 24.6676 17.9023 25.2281 18.2271C25.7886 18.5456 26.4445 18.7048 27.1961 18.7048C27.6992 18.7048 28.1546 18.6347 28.5622 18.4946C28.9698 18.3481 29.3233 18.1348 29.6226 17.8545C29.922 17.5743 30.1481 17.2272 30.3009 16.8132L33.53 17.1763C33.3262 18.0297 32.9377 18.7748 32.3645 19.4117C31.7976 20.0423 31.0716 20.5327 30.1863 20.883C29.301 21.2269 28.2884 21.3988 27.1483 21.3988Z" fill="#F8F9FA"/>
<path d="M40.0573 12.5142V21.1122H36.599V6.43825H39.9045V8.93168H40.0764C40.414 8.11009 40.9522 7.45728 41.6909 6.97324C42.4361 6.4892 43.3564 6.24718 44.4519 6.24718C45.4645 6.24718 46.3466 6.46373 47.0982 6.89681C47.8561 7.3299 48.442 7.95724 48.856 8.77883C49.2763 9.60042 49.4833 10.5972 49.477 11.769V21.1122H46.0186V12.304C46.0186 11.3232 45.7639 10.5558 45.2544 10.0017C44.7512 9.44757 44.0538 9.17052 43.1622 9.17052C42.5571 9.17052 42.0189 9.30426 41.5476 9.57176C41.0827 9.83288 40.7165 10.2118 40.449 10.7086C40.1879 11.2054 40.0573 11.8073 40.0573 12.5142Z" fill="#F8F9FA"/>
<path d="M59.4889 21.3988C58.0177 21.3988 56.7471 21.0931 55.6771 20.4817C54.6135 19.8639 53.7951 18.9914 53.2219 17.8641C52.6487 16.7304 52.3621 15.3961 52.3621 13.8612C52.3621 12.3518 52.6487 11.0271 53.2219 9.88702C53.8014 8.74061 54.6103 7.84897 55.6484 7.21207C56.6866 6.56881 57.9062 6.24718 59.3074 6.24718C60.2118 6.24718 61.0652 6.39367 61.8677 6.68664C62.6765 6.97324 63.3899 7.41906 64.0076 8.02411C64.6318 8.62916 65.1222 9.3998 65.4789 10.336C65.8355 11.2659 66.0139 12.3741 66.0139 13.6606V14.721H53.9861V12.39H62.6988C62.6925 11.7276 62.5492 11.1385 62.2689 10.6226C61.9887 10.1004 61.597 9.68958 61.0939 9.39025C60.5971 9.09091 60.0175 8.94124 59.3551 8.94124C58.6482 8.94124 58.0272 9.1132 57.4922 9.45712C56.9572 9.79467 56.5401 10.2405 56.2407 10.7946C55.9478 11.3423 55.7981 11.9442 55.7917 12.6002V14.6351C55.7917 15.4885 55.9478 16.2209 56.2599 16.8323C56.5719 17.4374 57.0082 17.9023 57.5687 18.2271C58.1291 18.5456 58.7851 18.7048 59.5367 18.7048C60.0398 18.7048 60.4952 18.6347 60.9028 18.4946C61.3104 18.3481 61.6639 18.1348 61.9632 17.8545C62.2626 17.5743 62.4887 17.2272 62.6415 16.8132L65.8706 17.1763C65.6667 18.0297 65.2782 18.7748 64.705 19.4117C64.1382 20.0423 63.4121 20.5327 62.5269 20.883C61.6416 21.2269 60.6289 21.3988 59.4889 21.3988Z" fill="#F8F9FA"/>
<path d="M68.9396 21.1122V6.43825H72.2928V8.88392H72.4457C72.7132 8.03685 73.1717 7.38404 73.8214 6.92547C74.4773 6.46054 75.2257 6.22808 76.0664 6.22808C76.2575 6.22808 76.4708 6.23763 76.7065 6.25674C76.9485 6.26947 77.1491 6.29177 77.3083 6.32361V9.50489C77.1618 9.45393 76.9294 9.40935 76.6109 9.37114C76.2989 9.32656 75.9963 9.30427 75.7034 9.30427C75.0728 9.30427 74.506 9.4412 74.0029 9.71506C73.5061 9.98256 73.1144 10.3551 72.8278 10.8328C72.5412 11.3105 72.3979 11.8614 72.3979 12.4855V21.1122H68.9396Z" fill="#F8F9FA"/>
<path d="M79.6059 21.1122V6.43825H83.0642V21.1122H79.6059ZM81.3446 4.35561C80.7969 4.35561 80.3256 4.1741 79.9307 3.81107C79.5359 3.44167 79.3384 2.99903 79.3384 2.48315C79.3384 1.9609 79.5359 1.51826 79.9307 1.15523C80.3256 0.785834 80.7969 0.601135 81.3446 0.601135C81.8987 0.601135 82.37 0.785834 82.7585 1.15523C83.1534 1.51826 83.3508 1.9609 83.3508 2.48315C83.3508 2.99903 83.1534 3.44167 82.7585 3.81107C82.37 4.1741 81.8987 4.35561 81.3446 4.35561Z" fill="#F8F9FA"/>
<path d="M93.0213 21.3988C91.5564 21.3988 90.2985 21.0772 89.2477 20.434C88.2032 19.7907 87.3975 18.9022 86.8307 17.7686C86.2702 16.6285 85.99 15.3165 85.99 13.8326C85.99 12.3422 86.2766 11.0271 86.8498 9.88702C87.423 8.74061 88.2318 7.84897 89.2763 7.21207C90.3272 6.56881 91.5691 6.24718 93.0021 6.24718C94.1931 6.24718 95.2472 6.46691 96.1643 6.90637C97.0878 7.33945 97.8234 7.95405 98.3711 8.75017C98.9189 9.53992 99.231 10.4634 99.3074 11.5206H96.0019C95.8682 10.8137 95.5497 10.2246 95.0466 9.75327C94.5498 9.27561 93.8842 9.03677 93.0499 9.03677C92.343 9.03677 91.722 9.22784 91.187 9.60997C90.652 9.98574 90.2349 10.5271 89.9355 11.234C89.6425 11.941 89.4961 12.7881 89.4961 13.7752C89.4961 14.7752 89.6425 15.635 89.9355 16.3547C90.2285 17.068 90.6393 17.6189 91.1679 18.0074C91.7029 18.3895 92.3302 18.5806 93.0499 18.5806C93.5594 18.5806 94.0148 18.4851 94.416 18.294C94.8237 18.0966 95.1644 17.8131 95.4383 17.4437C95.7121 17.0743 95.9 16.6253 96.0019 16.0967H99.3074C99.2246 17.1349 98.9189 18.0552 98.3903 18.8576C97.8616 19.6538 97.142 20.2779 96.2312 20.7301C95.3204 21.1759 94.2505 21.3988 93.0213 21.3988Z" fill="#F8F9FA"/>
<path d="M125.72 8.14831H122.147C122.045 7.56237 121.857 7.0433 121.583 6.5911C121.31 6.13254 120.969 5.74404 120.561 5.42559C120.154 5.10715 119.689 4.86831 119.166 4.70909C118.651 4.5435 118.093 4.4607 117.495 4.4607C116.431 4.4607 115.488 4.7282 114.667 5.26318C113.845 5.79181 113.202 6.56881 112.737 7.59421C112.272 8.61324 112.04 9.85836 112.04 11.3296C112.04 12.8263 112.272 14.0873 112.737 15.1127C113.208 16.1317 113.852 16.9024 114.667 17.4246C115.488 17.9405 116.428 18.1985 117.485 18.1985C118.071 18.1985 118.619 18.122 119.128 17.9692C119.644 17.81 120.106 17.5775 120.513 17.2718C120.927 16.9661 121.275 16.5903 121.555 16.1445C121.841 15.6987 122.039 15.1891 122.147 14.6159L125.72 14.6351C125.586 15.5649 125.297 16.4375 124.851 17.2527C124.411 18.0679 123.835 18.7876 123.122 19.4117C122.408 20.0295 121.574 20.5136 120.619 20.8639C119.663 21.2078 118.603 21.3797 117.437 21.3797C115.718 21.3797 114.183 20.9817 112.833 20.1856C111.482 19.3895 110.419 18.2399 109.642 16.7368C108.865 15.2337 108.476 13.4313 108.476 11.3296C108.476 9.22147 108.868 7.41906 109.651 5.92237C110.435 4.4193 111.501 3.26971 112.852 2.4736C114.202 1.67748 115.73 1.27943 117.437 1.27943C118.526 1.27943 119.539 1.43228 120.475 1.73799C121.412 2.0437 122.246 2.49271 122.978 3.08501C123.711 3.67095 124.313 4.39064 124.784 5.24408C125.262 6.09115 125.574 7.05922 125.72 8.14831Z" fill="#F8F9FA"/>
<path d="M135.214 21.3988C133.781 21.3988 132.539 21.0836 131.488 20.4531C130.437 19.8225 129.622 18.9404 129.042 17.8068C128.469 16.6731 128.182 15.3484 128.182 13.8326C128.182 12.3168 128.469 10.9888 129.042 9.84881C129.622 8.70877 130.437 7.82349 131.488 7.19297C132.539 6.56245 133.781 6.24718 135.214 6.24718C136.647 6.24718 137.889 6.56245 138.94 7.19297C139.99 7.82349 140.802 8.70877 141.376 9.84881C141.955 10.9888 142.245 12.3168 142.245 13.8326C142.245 15.3484 141.955 16.6731 141.376 17.8068C140.802 18.9404 139.99 19.8225 138.94 20.4531C137.889 21.0836 136.647 21.3988 135.214 21.3988ZM135.233 18.6284C136.01 18.6284 136.66 18.415 137.182 17.9883C137.704 17.5552 138.092 16.9756 138.347 16.2496C138.608 15.5235 138.739 14.7147 138.739 13.823C138.739 12.925 138.608 12.113 138.347 11.3869C138.092 10.6545 137.704 10.0717 137.182 9.63863C136.66 9.20555 136.01 8.989 135.233 8.989C134.437 8.989 133.774 9.20555 133.246 9.63863C132.724 10.0717 132.332 10.6545 132.071 11.3869C131.816 12.113 131.689 12.925 131.689 13.823C131.689 14.7147 131.816 15.5235 132.071 16.2496C132.332 16.9756 132.724 17.5552 133.246 17.9883C133.774 18.415 134.437 18.6284 135.233 18.6284Z" fill="#F8F9FA"/>
<path d="M154.533 14.9408V6.43825H157.991V21.1122H154.638V18.5042H154.485C154.154 19.3258 153.61 19.9977 152.852 20.5199C152.1 21.0422 151.173 21.3033 150.072 21.3033C149.11 21.3033 148.26 21.09 147.521 20.6632C146.788 20.2301 146.215 19.6028 145.801 18.7812C145.387 17.9533 145.18 16.9533 145.18 15.7815V6.43825H148.639V15.2465C148.639 16.1763 148.893 16.9151 149.403 17.4629C149.912 18.0106 150.581 18.2844 151.409 18.2844C151.919 18.2844 152.412 18.1602 152.89 17.9119C153.368 17.6635 153.759 17.2941 154.065 16.8037C154.377 16.3069 154.533 15.6859 154.533 14.9408Z" fill="#F8F9FA"/>
<path d="M161.548 21.1122V6.43825H164.901V8.88392H165.054C165.321 8.03685 165.78 7.38404 166.429 6.92547C167.085 6.46054 167.834 6.22808 168.674 6.22808C168.866 6.22808 169.079 6.23763 169.315 6.25674C169.557 6.26947 169.757 6.29177 169.916 6.32361V9.50489C169.77 9.45393 169.537 9.40935 169.219 9.37114C168.907 9.32656 168.604 9.30427 168.311 9.30427C167.681 9.30427 167.114 9.4412 166.611 9.71506C166.114 9.98256 165.722 10.3551 165.436 10.8328C165.149 11.3105 165.006 11.8614 165.006 12.4855V21.1122H161.548Z" fill="#F8F9FA"/>
<path d="M183.812 10.3169L180.659 10.6608C180.57 10.3424 180.414 10.0431 180.191 9.76283C179.975 9.4826 179.682 9.2565 179.312 9.08454C178.943 8.91258 178.491 8.8266 177.956 8.8266C177.236 8.8266 176.631 8.98263 176.14 9.29471C175.656 9.60679 175.418 10.0112 175.424 10.508C175.418 10.9347 175.574 11.2818 175.892 11.5493C176.217 11.8168 176.752 12.0365 177.497 12.2085L180 12.7435C181.388 13.0428 182.42 13.5173 183.095 14.1669C183.777 14.8166 184.121 15.6668 184.127 16.7177C184.121 17.6412 183.85 18.4564 183.315 19.1634C182.786 19.8639 182.051 20.4117 181.108 20.8065C180.166 21.2014 179.083 21.3988 177.86 21.3988C176.064 21.3988 174.618 21.0231 173.523 20.2715C172.427 19.5136 171.775 18.4596 171.564 17.1094L174.937 16.7846C175.09 17.4469 175.414 17.9469 175.911 18.2844C176.408 18.622 177.054 18.7908 177.85 18.7908C178.672 18.7908 179.331 18.622 179.828 18.2844C180.331 17.9469 180.583 17.5297 180.583 17.0329C180.583 16.6126 180.42 16.2655 180.096 15.9916C179.777 15.7178 179.28 15.5076 178.605 15.3611L176.102 14.8357C174.695 14.5427 173.653 14.0491 172.978 13.3549C172.303 12.6543 171.969 11.769 171.975 10.6991C171.969 9.79467 172.214 9.0113 172.711 8.34893C173.214 7.68019 173.911 7.16431 174.803 6.80128C175.701 6.43188 176.736 6.24718 177.908 6.24718C179.627 6.24718 180.981 6.6134 181.968 7.34582C182.962 8.07825 183.576 9.06861 183.812 10.3169Z" fill="#F8F9FA"/>
<path d="M193.475 21.3988C192.004 21.3988 190.733 21.0931 189.663 20.4817C188.6 19.8639 187.781 18.9914 187.208 17.8641C186.635 16.7304 186.348 15.3961 186.348 13.8612C186.348 12.3518 186.635 11.0271 187.208 9.88702C187.788 8.74061 188.596 7.84897 189.635 7.21207C190.673 6.56881 191.892 6.24718 193.294 6.24718C194.198 6.24718 195.051 6.39367 195.854 6.68664C196.663 6.97324 197.376 7.41906 197.994 8.02411C198.618 8.62916 199.108 9.3998 199.465 10.336C199.822 11.2659 200 12.3741 200 13.6606V14.721H187.972V12.39H196.685C196.679 11.7276 196.535 11.1385 196.255 10.6226C195.975 10.1004 195.583 9.68958 195.08 9.39025C194.583 9.09091 194.004 8.94124 193.341 8.94124C192.634 8.94124 192.013 9.1132 191.478 9.45712C190.943 9.79467 190.526 10.2405 190.227 10.7946C189.934 11.3423 189.784 11.9442 189.778 12.6002V14.6351C189.778 15.4885 189.934 16.2209 190.246 16.8323C190.558 17.4374 190.994 17.9023 191.555 18.2271C192.115 18.5456 192.771 18.7048 193.523 18.7048C194.026 18.7048 194.481 18.6347 194.889 18.4946C195.297 18.3481 195.65 18.1348 195.949 17.8545C196.249 17.5743 196.475 17.2272 196.628 16.8132L199.857 17.1763C199.653 18.0297 199.264 18.7748 198.691 19.4117C198.124 20.0423 197.398 20.5327 196.513 20.883C195.628 21.2269 194.615 21.3988 193.475 21.3988Z" fill="#F8F9FA"/>
</svg>
